<svg width="20" height="20" viewBox="0 0 20 20" fill="none" xmlns="http://www.w3.org/2000/svg">
<path d="M4.16663 4.375C3.82145 4.375 3.54163 4.65482 3.54163 5C3.54163 5.34518 3.82145 5.625 4.16663 5.625H15.8333C16.1785 5.625 16.4583 5.34518 16.4583 5C16.4583 4.65482 16.1785 4.375 15.8333 4.375H4.16663Z" fill="#21005D"/>
<path d="M4.16663 9.375C3.82145 9.375 3.54163 9.65482 3.54163 10C3.54163 10.3452 3.82145 10.625 4.16663 10.625H15.8333C16.1785 10.625 16.4583 10.3452 16.4583 10C16.4583 9.65482 16.1785 9.375 15.8333 9.375H4.16663Z" fill="#21005D"/>
<path d="M4.16663 14.375C3.82145 14.375 3.54163 14.6548 3.54163 15C3.54163 15.3452 3.82145 15.625 4.16663 15.625H15.8333C16.1785 15.625 16.4583 15.3452 16.4583 15C16.4583 14.6548 16.1785 14.375 15.8333 14.375H4.16663Z" fill="#21005D"/>
</svg>
