<svg width="33" height="36" viewBox="0 0 33 36" fill="none" xmlns="http://www.w3.org/2000/svg">
<path d="M7.21875 8.625C7.21875 4.68997 10.1429 1.5 13.75 1.5C17.3571 1.5 20.2812 4.68997 20.2812 8.625C20.2812 12.56 17.3571 15.75 13.75 15.75C10.1429 15.75 7.21875 12.56 7.21875 8.625Z" fill="#3B05FF"/>
<path d="M3.09375 25.125C3.09375 21.19 6.01789 18 9.625 18H17.875C20.6761 18 23.0654 19.9237 23.9933 22.6261L23.5685 23.1437C22.6137 24.3072 22.0773 24.9503 21.6562 25.3421C21.2352 24.9503 20.6988 24.3072 19.7439 23.1437L18.5488 21.6875C17.5358 20.453 15.7972 20.3483 14.6657 21.4534C13.5341 22.5586 13.4381 24.4552 14.4512 25.6896L15.7529 27.2759C16.5777 28.2813 17.3797 29.2589 18.1419 29.9577C18.8563 30.6128 19.7616 31.24 20.9081 31.4367C20.0018 31.9561 18.9698 32.25 17.875 32.25H9.625C6.01789 32.25 3.09375 29.06 3.09375 25.125Z" fill="#3B05FF"/>
<path d="M31.0183 20.2504C31.3982 19.7875 31.3622 19.0763 30.9379 18.6618C30.5135 18.2474 29.8616 18.2867 29.4817 18.7496L24.8491 24.3944C23.9104 25.5382 23.2782 26.3044 22.7377 26.8C22.2228 27.2721 21.9204 27.375 21.6562 27.375C21.3921 27.375 21.0897 27.2721 20.5748 26.8C20.0343 26.3044 19.4021 25.5382 18.4634 24.3944L17.2683 22.9381C16.8884 22.4752 16.2365 22.4359 15.8121 22.8504C15.3878 23.2648 15.3518 23.976 15.7317 24.4389L16.9779 25.9574C17.8521 27.0228 18.5814 27.9114 19.2477 28.5224C19.9526 29.1687 20.7129 29.625 21.6562 29.625C22.5996 29.625 23.3599 29.1687 24.0648 28.5224C24.7311 27.9114 25.4603 27.0228 26.3346 25.9574L31.0183 20.2504Z" fill="#3B05FF"/>
</svg>
